Coordinates
version=1
nRows=8
nColumns=40
inDegrees=yes

Units are S.I. units (second, meters, Newtons, ...)
Angles are in degrees.

endheader
time	pelvis_tilt	pelvis_list	pelvis_rotation	pelvis_tx	pelvis_ty	pelvis_tz	hip_flexion_r	hip_adduction_r	hip_rotation_r	knee_angle_r	knee_angle_r_beta	ankle_angle_r	subtalar_angle_r	mtp_angle_r	hip_flexion_l	hip_adduction_l	hip_rotation_l	knee_angle_l	knee_angle_l_beta	ankle_angle_l	subtalar_angle_l	mtp_angle_l	lumbar_extension	lumbar_bending	lumbar_rotation	arm_flex_r	arm_add_r	arm_rot_r	elbow_flex_r	pro_sup_r	wrist_flex_r	wrist_dev_r	arm_flex_l	arm_add_l	arm_rot_l	elbow_flex_l	pro_sup_l	wrist_flex_l	wrist_dev_l
      1.55000000	      1.89552946	      0.99143167	     -2.06410759	     -0.08788844	      0.90365231	      1.41782066	     16.98798009	     -4.06034174	     -7.55920897	    -58.42926763	     -1.01978310	     -0.19747069	    -13.04414465	     11.90786500	      0.70362013	     -3.61719090	     11.56368342	    -13.66492635	     -0.23849796	      8.41209173	     -2.46702547	     -4.64174415	     -9.37392796	      0.82270696	     -0.77457065	      8.04021932	    -10.41117925	     16.66141840	     17.49361237	     89.95437384	      0.00000000	      0.00000000	      8.49494273	     10.08608765	    -21.67490515	     18.49061853	     89.95437384	      0.00000000	      0.00000000
      1.56000000	      1.98232346	      0.78724732	     -1.97629517	     -0.07849386	      0.90356758	      1.41749109	     17.90802332	     -3.66467330	     -7.74102840	    -57.29300830	     -0.99995163	      0.65648748	    -12.49083123	     11.33105679	     -0.12365423	     -3.41586234	     11.50866441	    -13.61225847	     -0.23757873	      8.90022094	     -2.71968943	     -4.69953196	     -9.38517441	      1.13927172	     -1.03740232	      7.53525320	    -10.40115237	     16.13292767	     17.35339919	     89.95437384	      0.00000000	      0.00000000	      9.14524959	     10.31530838	    -21.56539919	     19.09146369	     89.95437384	      0.00000000	      0.00000000
      1.57000000	      1.81533051	      0.80510466	     -1.95377494	     -0.06921756	      0.90293380	      1.41706842	     19.16119983	     -3.63091925	     -8.04278124	    -56.10709653	     -0.97925357	      1.10916058	    -12.15606617	     11.05400595	     -0.61188738	     -3.49206483	     11.58732348	    -13.61724765	     -0.23766581	      9.18745414	     -2.74817131	     -4.69105450	     -9.09074452	      1.22226897	     -1.21963066	      6.96205932	    -10.44559599	     15.99791050	     17.23760521	     89.95437384	      0.00000000	      0.00000000	      9.80807055	     10.51002654	    -21.39445092	     19.61643555	     89.95437384	      0.00000000	      0.00000000
      1.58000000	      1.67061885	      0.80882305	     -1.89440139	     -0.06000457	      0.90221810	      1.41665671	     20.32321827	     -3.52711303	     -8.26205480	    -54.71606981	     -0.95497557	      1.67477491	    -11.77233111	     10.76939250	     -1.17199945	     -3.53095258	     11.61029908	    -13.53791751	     -0.23628123	      9.57540547	     -2.86897870	     -4.70819257	     -8.86032746	      1.31482678	     -1.40356005	      6.41872674	    -10.49588985	     15.82791597	     17.11161064	     89.95437384	      0.00000000	      0.00000000	     10.44510170	     10.72386526	    -21.17809750	     20.21723177	     89.95437384	      0.00000000	      0.00000000
      1.59000000	      2.27877407	      0.29538868	     -1.70558913	     -0.05035434	      0.90273943	      1.41656981	     20.20806340	     -2.85334103	     -8.70217655	    -52.68249031	     -0.91948291	      2.77625037	    -10.68776049	      9.95838880	     -2.75932412	     -2.99974263	     11.53760680	    -13.15112581	     -0.22953045	     10.16899547	     -3.38496579	     -4.83713173	     -9.52751673	      1.95432831	     -1.72036901	      6.00555604	    -10.40336078	     14.72637612	     16.99609509	     89.95437384	      0.00000000	      0.00000000	     11.02196337	     10.90945413	    -20.38222151	     21.06503979	     89.95437384	      0.00000000	      0.00000000
      1.60000000	      2.29567106	      0.16591331	     -1.61529660	     -0.04122377	      0.90215588	      1.41639198	     20.96749514	     -2.65856918	     -9.09704452	    -50.80630688	     -0.88673734	      3.14549746	    -10.17881059	      9.40100928	     -3.51410655	     -2.85690554	     11.58764535	    -13.04731564	     -0.22771862	     10.41217458	     -3.86057222	     -4.91680795	     -9.53057822	      2.17800867	     -1.89051179	      5.55642575	    -10.37414400	     14.30167853	     16.76796303	     89.95437384	      0.00000000	      0.00000000	     11.70834105	     11.07341660	    -19.91582148	     21.62779821	     89.95437384	      0.00000000	      0.00000000
      1.61000000	      2.62595156	     -0.01706299	     -1.55170159	     -0.03160791	      0.90197277	      1.41640975	     21.17879913	     -2.42447858	     -9.62579897	    -48.58278754	     -0.84792960	      3.37155483	     -9.99380884	      8.17255134	     -4.67838152	     -2.61416688	     12.05580814	    -12.84587415	     -0.22420280	     10.42152739	     -4.80689603	     -5.11347647	     -9.86319429	      2.42994127	     -2.05473459	      5.10505945	    -10.29366219	     13.61797155	     16.62315903	     89.95437384	      0.00000000	      0.00000000	     12.28686984	     11.20708309	    -18.99709940	     22.31876919	     89.95437384	      0.00000000	      0.00000000
      1.62000000	      2.31552715	      0.22760410	     -1.56427481	     -0.02273685	      0.90055413	      1.41621391	     22.38496401	     -2.69087927	    -10.02626046	    -46.72991863	     -0.81559094	      3.59909381	     -9.72075597	      8.02019096	     -4.94005823	     -2.89697258	     12.18209753	    -12.93038023	     -0.22567771	     10.66308607	     -4.81027782	     -5.10717313	     -9.53163725	      2.23379902	     -2.06706278	      4.55193519	    -10.30679558	     13.62412448	     16.55112426	     89.95437384	      0.00000000	      0.00000000	     12.94732305	     11.40831579	    -18.77949707	     22.95918128	     89.95437384	      0.00000000	      0.00000000
